<svg width="1920" height="28" viewBox="0 0 1920 28" fill="none" xmlns="http://www.w3.org/2000/svg">
<path d="M-29 14C7.36666 -3.33333 43.7333 -3.33333 80.1 14C116.467 31.3333 152.833 31.3333 189.2 14C225.567 -3.33333 261.933 -3.33333 298.3 14C334.667 31.3333 371.033 31.3333 407.4 14C443.767 -3.33333 480.133 -3.33333 516.5 14C552.867 31.3333 589.233 31.3333 625.6 14C661.967 -3.33333 698.333 -3.33333 734.7 14C771.067 31.3333 807.433 31.3333 843.8 14C880.167 -3.33333 916.533 -3.33333 952.9 14C989.267 31.3333 1025.63 31.3333 1062 14C1098.37 -3.33333 1134.73 -3.33333 1171.1 14C1207.47 31.3333 1243.83 31.3333 1280.2 14C1316.57 -3.33333 1352.93 -3.33333 1389.3 14C1425.67 31.3333 1462.03 31.3333 1498.4 14C1534.77 -3.33333 1571.13 -3.33333 1607.5 14C1643.87 31.3333 1680.23 31.3333 1716.6 14C1752.97 -3.33333 1789.33 -3.33333 1825.7 14C1862.07 31.3333 1898.43 31.3333 1934.8 14C1971.17 -3.33333 2007.53 -3.33333 2043.9 14C2080.27 31.3333 2116.63 31.3333 2153 14" stroke="#F5F9FF" stroke-width="2"/>
</svg>
