<?xml version="1.0" standalone="no"?>
<!DOCTYPE svg PUBLIC "-//W3C//DTD SVG 20010904//EN"
 "http://www.w3.org/TR/2001/REC-SVG-20010904/DTD/svg10.dtd">
<svg version="1.0" xmlns="http://www.w3.org/2000/svg"
 width="700.000000pt" height="700.000000pt" viewBox="0 0 700.000000 700.000000"
 preserveAspectRatio="xMidYMid meet">
<metadata>
Created by potrace 1.14, written by Peter Selinger 2001-2017
</metadata>
<g transform="translate(0.000000,700.000000) scale(0.100000,-0.100000)"
fill="#000000" stroke="none">
<path d="M5090 6117 c-30 -10 -103 -50 -180 -98 -8 -5 -26 -15 -40 -21 -14 -7
-36 -19 -50 -29 -14 -9 -61 -35 -105 -59 -44 -24 -84 -46 -90 -50 -5 -4 -26
-17 -45 -27 -19 -11 -109 -62 -200 -113 -91 -52 -210 -119 -265 -150 -55 -31
-287 -163 -515 -292 -228 -130 -433 -245 -454 -257 -122 -69 -123 -77 -67
-336 16 -77 44 -207 61 -290 17 -82 47 -226 67 -320 19 -93 41 -199 48 -235 8
-36 32 -153 55 -260 22 -107 43 -207 45 -222 3 -16 12 -56 20 -90 8 -35 16
-75 19 -91 3 -15 7 -35 10 -45 3 -9 7 -34 11 -56 3 -21 7 -41 9 -45 2 -3 7
-22 10 -41 3 -19 8 -46 11 -60 3 -14 8 -38 11 -55 3 -16 16 -79 29 -140 14
-60 27 -121 29 -135 3 -14 23 -113 46 -220 48 -231 71 -338 76 -365 2 -11 6
-31 9 -45 11 -47 14 -65 20 -102 3 -21 10 -49 15 -63 5 -14 12 -53 16 -87 6
-72 15 -59 -134 -212 -179 -182 -333 -246 -564 -233 -121 7 -149 13 -223 48
-124 58 -197 123 -368 329 -192 230 -289 335 -404 437 -106 94 -316 216 -443
258 -40 13 -153 45 -180 51 -19 4 -39 9 -45 10 -88 20 -191 28 -337 29 -136 0
-136 0 -180 -30 -99 -71 -115 -199 -35 -297 30 -37 97 -56 227 -62 179 -9 252
-21 370 -59 236 -75 404 -205 645 -502 247 -304 391 -434 579 -520 318 -147
750 -110 1039 88 97 67 163 128 287 264 124 135 226 247 240 263 25 28 143
161 165 184 11 12 58 65 105 117 47 51 106 116 131 144 25 27 61 67 80 89 40
45 63 71 133 147 28 30 80 88 115 128 35 39 78 87 95 105 17 18 61 66 97 107
37 41 77 86 90 100 55 59 185 204 202 223 10 12 37 41 59 66 53 59 196 216
227 249 13 14 51 57 85 95 33 38 75 84 91 101 36 39 162 179 188 208 10 12 50
57 90 101 40 44 83 91 95 105 13 14 43 46 66 71 120 128 124 164 34 297 -15
23 -28 43 -28 46 0 2 -76 133 -170 291 -93 159 -170 290 -170 293 0 2 -13 24
-30 48 -16 24 -30 46 -30 50 0 3 -11 23 -25 45 -40 63 -315 532 -315 537 0 2
-13 24 -30 48 -16 24 -30 46 -30 49 0 3 -31 57 -70 121 -38 64 -70 120 -70
125 0 6 -4 10 -10 10 -5 0 -10 4 -10 10 0 5 -27 54 -60 108 -52 86 -66 102
-100 116 -22 9 -41 16 -43 15 -1 0 -18 -6 -37 -12z"/>
</g>
</svg>
