<svg width="8" height="8" viewBox="0 0 8 8" fill="none" xmlns="http://www.w3.org/2000/svg">
<path d="M3.67063 7.7696C3.70733 7.84066 3.75644 7.89876 3.81372 7.93889C3.871 7.97903 3.93475 8 3.99946 8C4.06417 8 4.12791 7.97903 4.1852 7.93889C4.24248 7.89876 4.29158 7.84066 4.32828 7.7696L7.92857 0.836743C7.97024 0.756778 7.99468 0.663118 7.99923 0.565938C8.00377 0.468757 7.98826 0.371774 7.95436 0.285524C7.92047 0.199274 7.86949 0.127057 7.80697 0.0767191C7.74445 0.0263811 7.67278 -0.000152706 7.59974 6.61103e-07H0.399176C0.326308 0.000401918 0.2549 0.027277 0.192632 0.0777355C0.130364 0.128194 0.079592 0.200327 0.0457757 0.286377C0.0119594 0.372427 -0.00362155 0.469139 0.000708374 0.566112C0.0050383 0.663084 0.0291153 0.756649 0.0703501 0.836743L3.67063 7.7696Z" fill="black"/>
</svg>
